<mxfile host="app.diagrams.net" agent="Mozilla/5.0 (X11; Linux x86_64) AppleWebKit/537.36 (KHTML, like Gecko) Chrome/130.0.0.0 Safari/537.36" version="24.8.4" pages="3">
  <diagram name="3_a" id="22U59bu8f_X8Lov9uzZY">
    <mxGraphModel dx="1544" dy="380" grid="1" gridSize="10" guides="1" tooltips="1" connect="1" arrows="1" fold="1" page="1" pageScale="1" pageWidth="827" pageHeight="1169" math="0" shadow="0">
      <root>
        <mxCell id="0" />
        <mxCell id="1" parent="0" />
        <mxCell id="Exf-VHCVVfBa1_Fa1MME-7" style="edgeStyle=orthogonalEdgeStyle;rounded=0;orthogonalLoop=1;jettySize=auto;html=1;exitX=0.25;exitY=0;exitDx=0;exitDy=0;startArrow=classic;startFill=1;endArrow=none;endFill=0;" edge="1" parent="1" source="Exf-VHCVVfBa1_Fa1MME-6">
          <mxGeometry relative="1" as="geometry">
            <mxPoint x="709.8571428571429" y="120" as="targetPoint" />
          </mxGeometry>
        </mxCell>
        <mxCell id="Exf-VHCVVfBa1_Fa1MME-8" style="edgeStyle=orthogonalEdgeStyle;rounded=0;orthogonalLoop=1;jettySize=auto;html=1;exitX=0.75;exitY=0;exitDx=0;exitDy=0;endArrow=none;endFill=0;startArrow=classic;startFill=1;" edge="1" parent="1" source="Exf-VHCVVfBa1_Fa1MME-6">
          <mxGeometry relative="1" as="geometry">
            <mxPoint x="749.8571428571429" y="120" as="targetPoint" />
          </mxGeometry>
        </mxCell>
        <mxCell id="Exf-VHCVVfBa1_Fa1MME-9" style="edgeStyle=orthogonalEdgeStyle;rounded=0;orthogonalLoop=1;jettySize=auto;html=1;" edge="1" parent="1" source="Exf-VHCVVfBa1_Fa1MME-6">
          <mxGeometry relative="1" as="geometry">
            <mxPoint x="730" y="280" as="targetPoint" />
          </mxGeometry>
        </mxCell>
        <mxCell id="Exf-VHCVVfBa1_Fa1MME-10" style="edgeStyle=orthogonalEdgeStyle;rounded=0;orthogonalLoop=1;jettySize=auto;html=1;exitX=0;exitY=0.5;exitDx=0;exitDy=0;entryX=1;entryY=0.5;entryDx=0;entryDy=0;" edge="1" parent="1" source="Exf-VHCVVfBa1_Fa1MME-6">
          <mxGeometry relative="1" as="geometry">
            <mxPoint x="610" y="200" as="targetPoint" />
          </mxGeometry>
        </mxCell>
        <mxCell id="Exf-VHCVVfBa1_Fa1MME-11" style="edgeStyle=orthogonalEdgeStyle;rounded=0;orthogonalLoop=1;jettySize=auto;html=1;exitX=1;exitY=0.5;exitDx=0;exitDy=0;startArrow=classic;startFill=1;endArrow=none;endFill=0;" edge="1" parent="1" source="Exf-VHCVVfBa1_Fa1MME-6">
          <mxGeometry relative="1" as="geometry">
            <mxPoint x="840" y="200" as="targetPoint" />
          </mxGeometry>
        </mxCell>
        <mxCell id="Exf-VHCVVfBa1_Fa1MME-6" value="FA" style="whiteSpace=wrap;html=1;aspect=fixed;fillColor=none;" vertex="1" parent="1">
          <mxGeometry x="690" y="160" width="80" height="80" as="geometry" />
        </mxCell>
        <mxCell id="Exf-VHCVVfBa1_Fa1MME-12" style="edgeStyle=orthogonalEdgeStyle;rounded=0;orthogonalLoop=1;jettySize=auto;html=1;exitX=0.25;exitY=0;exitDx=0;exitDy=0;startArrow=classic;startFill=1;endArrow=none;endFill=0;" edge="1" parent="1" source="Exf-VHCVVfBa1_Fa1MME-16">
          <mxGeometry relative="1" as="geometry">
            <mxPoint x="549.8571428571429" y="120" as="targetPoint" />
          </mxGeometry>
        </mxCell>
        <mxCell id="Exf-VHCVVfBa1_Fa1MME-13" style="edgeStyle=orthogonalEdgeStyle;rounded=0;orthogonalLoop=1;jettySize=auto;html=1;exitX=0.75;exitY=0;exitDx=0;exitDy=0;endArrow=none;endFill=0;startArrow=classic;startFill=1;" edge="1" parent="1" source="Exf-VHCVVfBa1_Fa1MME-16">
          <mxGeometry relative="1" as="geometry">
            <mxPoint x="589.8571428571429" y="120" as="targetPoint" />
          </mxGeometry>
        </mxCell>
        <mxCell id="Exf-VHCVVfBa1_Fa1MME-14" style="edgeStyle=orthogonalEdgeStyle;rounded=0;orthogonalLoop=1;jettySize=auto;html=1;" edge="1" parent="1" source="Exf-VHCVVfBa1_Fa1MME-16">
          <mxGeometry relative="1" as="geometry">
            <mxPoint x="570" y="280" as="targetPoint" />
          </mxGeometry>
        </mxCell>
        <mxCell id="Exf-VHCVVfBa1_Fa1MME-15" style="edgeStyle=orthogonalEdgeStyle;rounded=0;orthogonalLoop=1;jettySize=auto;html=1;exitX=0;exitY=0.5;exitDx=0;exitDy=0;entryX=1;entryY=0.5;entryDx=0;entryDy=0;" edge="1" parent="1" source="Exf-VHCVVfBa1_Fa1MME-16">
          <mxGeometry relative="1" as="geometry">
            <mxPoint x="450" y="200" as="targetPoint" />
          </mxGeometry>
        </mxCell>
        <mxCell id="Exf-VHCVVfBa1_Fa1MME-16" value="FA" style="whiteSpace=wrap;html=1;aspect=fixed;fillColor=none;" vertex="1" parent="1">
          <mxGeometry x="530" y="160" width="80" height="80" as="geometry" />
        </mxCell>
        <mxCell id="Exf-VHCVVfBa1_Fa1MME-17" style="edgeStyle=orthogonalEdgeStyle;rounded=0;orthogonalLoop=1;jettySize=auto;html=1;exitX=0.25;exitY=0;exitDx=0;exitDy=0;startArrow=classic;startFill=1;endArrow=none;endFill=0;" edge="1" parent="1" source="Exf-VHCVVfBa1_Fa1MME-21">
          <mxGeometry relative="1" as="geometry">
            <mxPoint x="389.8571428571429" y="120" as="targetPoint" />
          </mxGeometry>
        </mxCell>
        <mxCell id="Exf-VHCVVfBa1_Fa1MME-18" style="edgeStyle=orthogonalEdgeStyle;rounded=0;orthogonalLoop=1;jettySize=auto;html=1;exitX=0.75;exitY=0;exitDx=0;exitDy=0;endArrow=none;endFill=0;startArrow=classic;startFill=1;" edge="1" parent="1" source="Exf-VHCVVfBa1_Fa1MME-21">
          <mxGeometry relative="1" as="geometry">
            <mxPoint x="429.8571428571429" y="120" as="targetPoint" />
          </mxGeometry>
        </mxCell>
        <mxCell id="Exf-VHCVVfBa1_Fa1MME-19" style="edgeStyle=orthogonalEdgeStyle;rounded=0;orthogonalLoop=1;jettySize=auto;html=1;" edge="1" parent="1" source="Exf-VHCVVfBa1_Fa1MME-21">
          <mxGeometry relative="1" as="geometry">
            <mxPoint x="410" y="280" as="targetPoint" />
          </mxGeometry>
        </mxCell>
        <mxCell id="Exf-VHCVVfBa1_Fa1MME-20" style="edgeStyle=orthogonalEdgeStyle;rounded=0;orthogonalLoop=1;jettySize=auto;html=1;exitX=0;exitY=0.5;exitDx=0;exitDy=0;entryX=1;entryY=0.5;entryDx=0;entryDy=0;" edge="1" parent="1" source="Exf-VHCVVfBa1_Fa1MME-21">
          <mxGeometry relative="1" as="geometry">
            <mxPoint x="290" y="200" as="targetPoint" />
          </mxGeometry>
        </mxCell>
        <mxCell id="Exf-VHCVVfBa1_Fa1MME-21" value="FA" style="whiteSpace=wrap;html=1;aspect=fixed;fillColor=none;" vertex="1" parent="1">
          <mxGeometry x="370" y="160" width="80" height="80" as="geometry" />
        </mxCell>
        <mxCell id="Exf-VHCVVfBa1_Fa1MME-22" style="edgeStyle=orthogonalEdgeStyle;rounded=0;orthogonalLoop=1;jettySize=auto;html=1;exitX=0.25;exitY=0;exitDx=0;exitDy=0;startArrow=classic;startFill=1;endArrow=none;endFill=0;" edge="1" parent="1" source="Exf-VHCVVfBa1_Fa1MME-26">
          <mxGeometry relative="1" as="geometry">
            <mxPoint x="229.8571428571429" y="120" as="targetPoint" />
          </mxGeometry>
        </mxCell>
        <mxCell id="Exf-VHCVVfBa1_Fa1MME-23" style="edgeStyle=orthogonalEdgeStyle;rounded=0;orthogonalLoop=1;jettySize=auto;html=1;exitX=0.75;exitY=0;exitDx=0;exitDy=0;endArrow=none;endFill=0;startArrow=classic;startFill=1;" edge="1" parent="1" source="Exf-VHCVVfBa1_Fa1MME-26">
          <mxGeometry relative="1" as="geometry">
            <mxPoint x="269.8571428571429" y="120" as="targetPoint" />
          </mxGeometry>
        </mxCell>
        <mxCell id="Exf-VHCVVfBa1_Fa1MME-24" style="edgeStyle=orthogonalEdgeStyle;rounded=0;orthogonalLoop=1;jettySize=auto;html=1;" edge="1" parent="1" source="Exf-VHCVVfBa1_Fa1MME-26">
          <mxGeometry relative="1" as="geometry">
            <mxPoint x="250" y="280" as="targetPoint" />
          </mxGeometry>
        </mxCell>
        <mxCell id="Exf-VHCVVfBa1_Fa1MME-25" style="edgeStyle=orthogonalEdgeStyle;rounded=0;orthogonalLoop=1;jettySize=auto;html=1;exitX=0;exitY=0.5;exitDx=0;exitDy=0;entryX=1;entryY=0.5;entryDx=0;entryDy=0;" edge="1" parent="1" source="Exf-VHCVVfBa1_Fa1MME-26">
          <mxGeometry relative="1" as="geometry">
            <mxPoint x="130" y="200" as="targetPoint" />
          </mxGeometry>
        </mxCell>
        <mxCell id="Exf-VHCVVfBa1_Fa1MME-26" value="FA" style="whiteSpace=wrap;html=1;aspect=fixed;fillColor=none;" vertex="1" parent="1">
          <mxGeometry x="210" y="160" width="80" height="80" as="geometry" />
        </mxCell>
        <mxCell id="Exf-VHCVVfBa1_Fa1MME-27" style="edgeStyle=orthogonalEdgeStyle;rounded=0;orthogonalLoop=1;jettySize=auto;html=1;exitX=0.25;exitY=0;exitDx=0;exitDy=0;startArrow=classic;startFill=1;endArrow=none;endFill=0;" edge="1" parent="1" source="Exf-VHCVVfBa1_Fa1MME-31">
          <mxGeometry relative="1" as="geometry">
            <mxPoint x="69.85714285714289" y="120" as="targetPoint" />
          </mxGeometry>
        </mxCell>
        <mxCell id="Exf-VHCVVfBa1_Fa1MME-28" style="edgeStyle=orthogonalEdgeStyle;rounded=0;orthogonalLoop=1;jettySize=auto;html=1;exitX=0.75;exitY=0;exitDx=0;exitDy=0;endArrow=none;endFill=0;startArrow=classic;startFill=1;" edge="1" parent="1" source="Exf-VHCVVfBa1_Fa1MME-31">
          <mxGeometry relative="1" as="geometry">
            <mxPoint x="109.85714285714289" y="120" as="targetPoint" />
          </mxGeometry>
        </mxCell>
        <mxCell id="Exf-VHCVVfBa1_Fa1MME-29" style="edgeStyle=orthogonalEdgeStyle;rounded=0;orthogonalLoop=1;jettySize=auto;html=1;" edge="1" parent="1" source="Exf-VHCVVfBa1_Fa1MME-31">
          <mxGeometry relative="1" as="geometry">
            <mxPoint x="90" y="280" as="targetPoint" />
          </mxGeometry>
        </mxCell>
        <mxCell id="Exf-VHCVVfBa1_Fa1MME-30" style="edgeStyle=orthogonalEdgeStyle;rounded=0;orthogonalLoop=1;jettySize=auto;html=1;exitX=0;exitY=0.5;exitDx=0;exitDy=0;" edge="1" parent="1" source="Exf-VHCVVfBa1_Fa1MME-31">
          <mxGeometry relative="1" as="geometry">
            <mxPoint x="-30" y="200" as="targetPoint" />
          </mxGeometry>
        </mxCell>
        <mxCell id="Exf-VHCVVfBa1_Fa1MME-31" value="FA" style="whiteSpace=wrap;html=1;aspect=fixed;fillColor=none;" vertex="1" parent="1">
          <mxGeometry x="50" y="160" width="80" height="80" as="geometry" />
        </mxCell>
        <mxCell id="Exf-VHCVVfBa1_Fa1MME-32" value="A&lt;sub&gt;0&lt;/sub&gt;" style="text;html=1;align=center;verticalAlign=middle;whiteSpace=wrap;rounded=0;" vertex="1" parent="1">
          <mxGeometry x="694" y="90" width="30" height="30" as="geometry" />
        </mxCell>
        <mxCell id="Exf-VHCVVfBa1_Fa1MME-33" value="B&lt;sub&gt;0&lt;/sub&gt;" style="text;html=1;align=center;verticalAlign=middle;whiteSpace=wrap;rounded=0;" vertex="1" parent="1">
          <mxGeometry x="735" y="90" width="30" height="30" as="geometry" />
        </mxCell>
        <mxCell id="Exf-VHCVVfBa1_Fa1MME-34" value="C&lt;sub&gt;in&lt;/sub&gt;" style="text;html=1;align=center;verticalAlign=middle;whiteSpace=wrap;rounded=0;" vertex="1" parent="1">
          <mxGeometry x="780" y="170" width="30" height="30" as="geometry" />
        </mxCell>
        <mxCell id="Exf-VHCVVfBa1_Fa1MME-35" value="S&lt;sub&gt;0&lt;/sub&gt;" style="text;html=1;align=center;verticalAlign=middle;whiteSpace=wrap;rounded=0;" vertex="1" parent="1">
          <mxGeometry x="700" y="240" width="30" height="30" as="geometry" />
        </mxCell>
        <mxCell id="Exf-VHCVVfBa1_Fa1MME-36" value="A&lt;sub&gt;1&lt;/sub&gt;" style="text;html=1;align=center;verticalAlign=middle;whiteSpace=wrap;rounded=0;" vertex="1" parent="1">
          <mxGeometry x="534" y="90" width="30" height="30" as="geometry" />
        </mxCell>
        <mxCell id="Exf-VHCVVfBa1_Fa1MME-37" value="B&lt;sub&gt;1&lt;/sub&gt;" style="text;html=1;align=center;verticalAlign=middle;whiteSpace=wrap;rounded=0;" vertex="1" parent="1">
          <mxGeometry x="575" y="90" width="30" height="30" as="geometry" />
        </mxCell>
        <mxCell id="Exf-VHCVVfBa1_Fa1MME-38" value="C&lt;sub&gt;0&lt;/sub&gt;" style="text;html=1;align=center;verticalAlign=middle;whiteSpace=wrap;rounded=0;" vertex="1" parent="1">
          <mxGeometry x="620" y="170" width="30" height="30" as="geometry" />
        </mxCell>
        <mxCell id="Exf-VHCVVfBa1_Fa1MME-39" value="S&lt;sub&gt;1&lt;/sub&gt;" style="text;html=1;align=center;verticalAlign=middle;whiteSpace=wrap;rounded=0;" vertex="1" parent="1">
          <mxGeometry x="540" y="240" width="30" height="30" as="geometry" />
        </mxCell>
        <mxCell id="Exf-VHCVVfBa1_Fa1MME-40" value="A&lt;sub&gt;2&lt;/sub&gt;" style="text;html=1;align=center;verticalAlign=middle;whiteSpace=wrap;rounded=0;" vertex="1" parent="1">
          <mxGeometry x="373" y="90" width="30" height="30" as="geometry" />
        </mxCell>
        <mxCell id="Exf-VHCVVfBa1_Fa1MME-41" value="B&lt;sub&gt;2&lt;/sub&gt;" style="text;html=1;align=center;verticalAlign=middle;whiteSpace=wrap;rounded=0;" vertex="1" parent="1">
          <mxGeometry x="414" y="90" width="30" height="30" as="geometry" />
        </mxCell>
        <mxCell id="Exf-VHCVVfBa1_Fa1MME-42" value="C&lt;sub&gt;1&lt;/sub&gt;" style="text;html=1;align=center;verticalAlign=middle;whiteSpace=wrap;rounded=0;" vertex="1" parent="1">
          <mxGeometry x="459" y="170" width="30" height="30" as="geometry" />
        </mxCell>
        <mxCell id="Exf-VHCVVfBa1_Fa1MME-43" value="S&lt;sub&gt;2&lt;/sub&gt;" style="text;html=1;align=center;verticalAlign=middle;whiteSpace=wrap;rounded=0;" vertex="1" parent="1">
          <mxGeometry x="379" y="240" width="30" height="30" as="geometry" />
        </mxCell>
        <mxCell id="Exf-VHCVVfBa1_Fa1MME-44" value="A&lt;sub&gt;3&lt;/sub&gt;" style="text;html=1;align=center;verticalAlign=middle;whiteSpace=wrap;rounded=0;" vertex="1" parent="1">
          <mxGeometry x="213" y="90" width="30" height="30" as="geometry" />
        </mxCell>
        <mxCell id="Exf-VHCVVfBa1_Fa1MME-45" value="B&lt;sub&gt;3&lt;/sub&gt;" style="text;html=1;align=center;verticalAlign=middle;whiteSpace=wrap;rounded=0;" vertex="1" parent="1">
          <mxGeometry x="254" y="90" width="30" height="30" as="geometry" />
        </mxCell>
        <mxCell id="Exf-VHCVVfBa1_Fa1MME-46" value="C&lt;span style=&quot;font-size: 10px;&quot;&gt;2&lt;/span&gt;" style="text;html=1;align=center;verticalAlign=middle;whiteSpace=wrap;rounded=0;" vertex="1" parent="1">
          <mxGeometry x="299" y="170" width="30" height="30" as="geometry" />
        </mxCell>
        <mxCell id="Exf-VHCVVfBa1_Fa1MME-47" value="S&lt;sub&gt;3&lt;/sub&gt;" style="text;html=1;align=center;verticalAlign=middle;whiteSpace=wrap;rounded=0;" vertex="1" parent="1">
          <mxGeometry x="219" y="240" width="30" height="30" as="geometry" />
        </mxCell>
        <mxCell id="Exf-VHCVVfBa1_Fa1MME-48" value="A&lt;sub&gt;4&lt;/sub&gt;" style="text;html=1;align=center;verticalAlign=middle;whiteSpace=wrap;rounded=0;" vertex="1" parent="1">
          <mxGeometry x="53" y="90" width="30" height="30" as="geometry" />
        </mxCell>
        <mxCell id="Exf-VHCVVfBa1_Fa1MME-49" value="B&lt;sub&gt;4&lt;/sub&gt;" style="text;html=1;align=center;verticalAlign=middle;whiteSpace=wrap;rounded=0;" vertex="1" parent="1">
          <mxGeometry x="94" y="90" width="30" height="30" as="geometry" />
        </mxCell>
        <mxCell id="Exf-VHCVVfBa1_Fa1MME-50" value="C&lt;span style=&quot;font-size: 10px;&quot;&gt;&lt;sub&gt;3&lt;/sub&gt;&lt;/span&gt;" style="text;html=1;align=center;verticalAlign=middle;whiteSpace=wrap;rounded=0;" vertex="1" parent="1">
          <mxGeometry x="139" y="170" width="30" height="30" as="geometry" />
        </mxCell>
        <mxCell id="Exf-VHCVVfBa1_Fa1MME-51" value="S&lt;sub&gt;4&lt;/sub&gt;" style="text;html=1;align=center;verticalAlign=middle;whiteSpace=wrap;rounded=0;" vertex="1" parent="1">
          <mxGeometry x="59" y="240" width="30" height="30" as="geometry" />
        </mxCell>
        <mxCell id="Exf-VHCVVfBa1_Fa1MME-52" value="C&lt;sub&gt;out&lt;/sub&gt;" style="text;html=1;align=center;verticalAlign=middle;whiteSpace=wrap;rounded=0;" vertex="1" parent="1">
          <mxGeometry x="10" y="170" width="30" height="30" as="geometry" />
        </mxCell>
        <mxCell id="Exf-VHCVVfBa1_Fa1MME-53" value="240 ns" style="text;html=1;align=center;verticalAlign=middle;whiteSpace=wrap;rounded=1;fillColor=#ffe6cc;arcSize=50;strokeColor=#d79b00;" vertex="1" parent="1">
          <mxGeometry x="630" y="210" width="40" height="20" as="geometry" />
        </mxCell>
        <mxCell id="Exf-VHCVVfBa1_Fa1MME-55" value="90 ns" style="text;html=1;align=center;verticalAlign=middle;whiteSpace=wrap;rounded=1;fillColor=#ffe6cc;arcSize=50;strokeColor=#d79b00;" vertex="1" parent="1">
          <mxGeometry x="710" y="290" width="40" height="20" as="geometry" />
        </mxCell>
        <mxCell id="Exf-VHCVVfBa1_Fa1MME-56" value="330 ns" style="text;html=1;align=center;verticalAlign=middle;whiteSpace=wrap;rounded=1;fillColor=#ffe6cc;arcSize=50;strokeColor=#d79b00;" vertex="1" parent="1">
          <mxGeometry x="550" y="290" width="40" height="20" as="geometry" />
        </mxCell>
        <mxCell id="Exf-VHCVVfBa1_Fa1MME-57" value="480 ns" style="text;html=1;align=center;verticalAlign=middle;whiteSpace=wrap;rounded=1;fillColor=#ffe6cc;arcSize=50;strokeColor=#d79b00;" vertex="1" parent="1">
          <mxGeometry x="470" y="210" width="40" height="20" as="geometry" />
        </mxCell>
        <mxCell id="Exf-VHCVVfBa1_Fa1MME-58" value="570 ns" style="text;html=1;align=center;verticalAlign=middle;whiteSpace=wrap;rounded=1;fillColor=#ffe6cc;arcSize=50;strokeColor=#d79b00;" vertex="1" parent="1">
          <mxGeometry x="390" y="290" width="40" height="20" as="geometry" />
        </mxCell>
        <mxCell id="Exf-VHCVVfBa1_Fa1MME-60" value="960 ns" style="text;html=1;align=center;verticalAlign=middle;whiteSpace=wrap;rounded=1;fillColor=#ffe6cc;arcSize=50;strokeColor=#d79b00;" vertex="1" parent="1">
          <mxGeometry x="310" y="210" width="40" height="20" as="geometry" />
        </mxCell>
        <mxCell id="Exf-VHCVVfBa1_Fa1MME-61" value="1050 ns" style="text;html=1;align=center;verticalAlign=middle;whiteSpace=wrap;rounded=1;fillColor=#ffe6cc;arcSize=50;strokeColor=#d79b00;" vertex="1" parent="1">
          <mxGeometry x="225" y="290" width="50" height="20" as="geometry" />
        </mxCell>
        <mxCell id="Exf-VHCVVfBa1_Fa1MME-62" value="1200 ns" style="text;html=1;align=center;verticalAlign=middle;whiteSpace=wrap;rounded=1;fillColor=#ffe6cc;arcSize=50;strokeColor=#d79b00;" vertex="1" parent="1">
          <mxGeometry x="145" y="210" width="50" height="20" as="geometry" />
        </mxCell>
        <mxCell id="Exf-VHCVVfBa1_Fa1MME-63" value="1290 ns" style="text;html=1;align=center;verticalAlign=middle;whiteSpace=wrap;rounded=1;fillColor=#ffe6cc;arcSize=50;strokeColor=#d79b00;" vertex="1" parent="1">
          <mxGeometry x="65" y="290" width="50" height="20" as="geometry" />
        </mxCell>
        <mxCell id="Exf-VHCVVfBa1_Fa1MME-64" value="1440 ns" style="text;html=1;align=center;verticalAlign=middle;whiteSpace=wrap;rounded=1;fillColor=#ffe6cc;arcSize=50;strokeColor=#d79b00;" vertex="1" parent="1">
          <mxGeometry x="-90" y="190" width="50" height="20" as="geometry" />
        </mxCell>
      </root>
    </mxGraphModel>
  </diagram>
  <diagram id="nsWbvz2ti4ak4sO8FqGC" name="3_b">
    <mxGraphModel dx="1816" dy="523" grid="1" gridSize="10" guides="1" tooltips="1" connect="1" arrows="1" fold="1" page="1" pageScale="1" pageWidth="827" pageHeight="1169" math="0" shadow="0">
      <root>
        <mxCell id="0" />
        <mxCell id="1" parent="0" />
        <mxCell id="KeFh9lIW5K4wc94P8Azn-1" value="&lt;font style=&quot;font-size: 20px;&quot;&gt;Generate P&lt;sub&gt;i&lt;/sub&gt;&amp;nbsp;, G&lt;sub&gt;i&lt;/sub&gt;&lt;/font&gt;" style="rounded=0;whiteSpace=wrap;html=1;fillColor=none;" vertex="1" parent="1">
          <mxGeometry x="160" y="160" width="530" height="60" as="geometry" />
        </mxCell>
        <mxCell id="KeFh9lIW5K4wc94P8Azn-4" value="A&lt;sub&gt;0&lt;/sub&gt;" style="text;html=1;align=center;verticalAlign=middle;whiteSpace=wrap;rounded=0;" vertex="1" parent="1">
          <mxGeometry x="564.5" y="90" width="31" height="30" as="geometry" />
        </mxCell>
        <mxCell id="KeFh9lIW5K4wc94P8Azn-5" value="B&lt;sub&gt;0&lt;/sub&gt;" style="text;html=1;align=center;verticalAlign=middle;whiteSpace=wrap;rounded=0;" vertex="1" parent="1">
          <mxGeometry x="614.5" y="90" width="31" height="30" as="geometry" />
        </mxCell>
        <mxCell id="KeFh9lIW5K4wc94P8Azn-6" value="A&lt;sub&gt;1&lt;/sub&gt;" style="text;html=1;align=center;verticalAlign=middle;whiteSpace=wrap;rounded=0;" vertex="1" parent="1">
          <mxGeometry x="444.5" y="90" width="31" height="30" as="geometry" />
        </mxCell>
        <mxCell id="KeFh9lIW5K4wc94P8Azn-7" value="B&lt;sub&gt;1&lt;/sub&gt;" style="text;html=1;align=center;verticalAlign=middle;whiteSpace=wrap;rounded=0;" vertex="1" parent="1">
          <mxGeometry x="494.5" y="90" width="31" height="30" as="geometry" />
        </mxCell>
        <mxCell id="KeFh9lIW5K4wc94P8Azn-8" value="A&lt;sub&gt;2&lt;/sub&gt;" style="text;html=1;align=center;verticalAlign=middle;whiteSpace=wrap;rounded=0;" vertex="1" parent="1">
          <mxGeometry x="324.5" y="90" width="31" height="30" as="geometry" />
        </mxCell>
        <mxCell id="KeFh9lIW5K4wc94P8Azn-9" value="B&lt;sub&gt;2&lt;/sub&gt;" style="text;html=1;align=center;verticalAlign=middle;whiteSpace=wrap;rounded=0;" vertex="1" parent="1">
          <mxGeometry x="374.5" y="90" width="31" height="30" as="geometry" />
        </mxCell>
        <mxCell id="KeFh9lIW5K4wc94P8Azn-10" value="A&lt;sub&gt;3&lt;/sub&gt;" style="text;html=1;align=center;verticalAlign=middle;whiteSpace=wrap;rounded=0;" vertex="1" parent="1">
          <mxGeometry x="204.5" y="90" width="31" height="30" as="geometry" />
        </mxCell>
        <mxCell id="KeFh9lIW5K4wc94P8Azn-11" value="B&lt;sub&gt;3&lt;/sub&gt;" style="text;html=1;align=center;verticalAlign=middle;whiteSpace=wrap;rounded=0;" vertex="1" parent="1">
          <mxGeometry x="254.5" y="90" width="31" height="30" as="geometry" />
        </mxCell>
        <mxCell id="KeFh9lIW5K4wc94P8Azn-12" style="edgeStyle=orthogonalEdgeStyle;rounded=0;orthogonalLoop=1;jettySize=auto;html=1;exitX=0.5;exitY=1;exitDx=0;exitDy=0;entryX=0.887;entryY=0.027;entryDx=0;entryDy=0;entryPerimeter=0;" edge="1" parent="1" source="KeFh9lIW5K4wc94P8Azn-5" target="KeFh9lIW5K4wc94P8Azn-1">
          <mxGeometry relative="1" as="geometry" />
        </mxCell>
        <mxCell id="KeFh9lIW5K4wc94P8Azn-13" style="edgeStyle=orthogonalEdgeStyle;rounded=0;orthogonalLoop=1;jettySize=auto;html=1;entryX=0.793;entryY=0.013;entryDx=0;entryDy=0;entryPerimeter=0;" edge="1" parent="1" source="KeFh9lIW5K4wc94P8Azn-4" target="KeFh9lIW5K4wc94P8Azn-1">
          <mxGeometry relative="1" as="geometry" />
        </mxCell>
        <mxCell id="KeFh9lIW5K4wc94P8Azn-14" style="edgeStyle=orthogonalEdgeStyle;rounded=0;orthogonalLoop=1;jettySize=auto;html=1;entryX=0.66;entryY=0;entryDx=0;entryDy=0;entryPerimeter=0;" edge="1" parent="1" source="KeFh9lIW5K4wc94P8Azn-7" target="KeFh9lIW5K4wc94P8Azn-1">
          <mxGeometry relative="1" as="geometry" />
        </mxCell>
        <mxCell id="KeFh9lIW5K4wc94P8Azn-15" style="edgeStyle=orthogonalEdgeStyle;rounded=0;orthogonalLoop=1;jettySize=auto;html=1;exitX=0.5;exitY=1;exitDx=0;exitDy=0;entryX=0.566;entryY=0.04;entryDx=0;entryDy=0;entryPerimeter=0;" edge="1" parent="1" source="KeFh9lIW5K4wc94P8Azn-6" target="KeFh9lIW5K4wc94P8Azn-1">
          <mxGeometry relative="1" as="geometry" />
        </mxCell>
        <mxCell id="KeFh9lIW5K4wc94P8Azn-16" style="edgeStyle=orthogonalEdgeStyle;rounded=0;orthogonalLoop=1;jettySize=auto;html=1;entryX=0.434;entryY=-0.013;entryDx=0;entryDy=0;entryPerimeter=0;" edge="1" parent="1" source="KeFh9lIW5K4wc94P8Azn-9" target="KeFh9lIW5K4wc94P8Azn-1">
          <mxGeometry relative="1" as="geometry" />
        </mxCell>
        <mxCell id="KeFh9lIW5K4wc94P8Azn-17" style="edgeStyle=orthogonalEdgeStyle;rounded=0;orthogonalLoop=1;jettySize=auto;html=1;entryX=0.339;entryY=0.013;entryDx=0;entryDy=0;entryPerimeter=0;" edge="1" parent="1" source="KeFh9lIW5K4wc94P8Azn-8" target="KeFh9lIW5K4wc94P8Azn-1">
          <mxGeometry relative="1" as="geometry" />
        </mxCell>
        <mxCell id="KeFh9lIW5K4wc94P8Azn-18" style="edgeStyle=orthogonalEdgeStyle;rounded=0;orthogonalLoop=1;jettySize=auto;html=1;entryX=0.208;entryY=0.027;entryDx=0;entryDy=0;entryPerimeter=0;" edge="1" parent="1" source="KeFh9lIW5K4wc94P8Azn-11" target="KeFh9lIW5K4wc94P8Azn-1">
          <mxGeometry relative="1" as="geometry" />
        </mxCell>
        <mxCell id="KeFh9lIW5K4wc94P8Azn-19" style="edgeStyle=orthogonalEdgeStyle;rounded=0;orthogonalLoop=1;jettySize=auto;html=1;entryX=0.114;entryY=0;entryDx=0;entryDy=0;entryPerimeter=0;" edge="1" parent="1" source="KeFh9lIW5K4wc94P8Azn-10" target="KeFh9lIW5K4wc94P8Azn-1">
          <mxGeometry relative="1" as="geometry" />
        </mxCell>
        <mxCell id="KeFh9lIW5K4wc94P8Azn-20" value="&lt;span style=&quot;font-size: 20px;&quot;&gt;Carry generatot logic (S.O.P.)&lt;/span&gt;" style="rounded=0;whiteSpace=wrap;html=1;fillColor=none;" vertex="1" parent="1">
          <mxGeometry x="160" y="300" width="530" height="60" as="geometry" />
        </mxCell>
        <mxCell id="KeFh9lIW5K4wc94P8Azn-22" value="" style="edgeStyle=none;orthogonalLoop=1;jettySize=auto;html=1;rounded=0;exitX=0.889;exitY=1.02;exitDx=0;exitDy=0;exitPerimeter=0;entryX=0.889;entryY=0;entryDx=0;entryDy=0;entryPerimeter=0;" edge="1" parent="1">
          <mxGeometry width="80" relative="1" as="geometry">
            <mxPoint x="629.8000000000001" y="221.20000000000005" as="sourcePoint" />
            <mxPoint x="629.8000000000001" y="300" as="targetPoint" />
            <Array as="points" />
          </mxGeometry>
        </mxCell>
        <mxCell id="KeFh9lIW5K4wc94P8Azn-23" value="" style="edgeStyle=none;orthogonalLoop=1;jettySize=auto;html=1;rounded=0;exitX=0.889;exitY=1.02;exitDx=0;exitDy=0;exitPerimeter=0;entryX=0.889;entryY=0;entryDx=0;entryDy=0;entryPerimeter=0;" edge="1" parent="1">
          <mxGeometry width="80" relative="1" as="geometry">
            <mxPoint x="579.8000000000001" y="220.00000000000006" as="sourcePoint" />
            <mxPoint x="579.8000000000001" y="298.8" as="targetPoint" />
            <Array as="points" />
          </mxGeometry>
        </mxCell>
        <mxCell id="KeFh9lIW5K4wc94P8Azn-24" value="" style="edgeStyle=none;orthogonalLoop=1;jettySize=auto;html=1;rounded=0;exitX=0.889;exitY=1.02;exitDx=0;exitDy=0;exitPerimeter=0;entryX=0.889;entryY=0;entryDx=0;entryDy=0;entryPerimeter=0;" edge="1" parent="1">
          <mxGeometry width="80" relative="1" as="geometry">
            <mxPoint x="510.00000000000006" y="221.20000000000005" as="sourcePoint" />
            <mxPoint x="510.00000000000006" y="300" as="targetPoint" />
            <Array as="points" />
          </mxGeometry>
        </mxCell>
        <mxCell id="KeFh9lIW5K4wc94P8Azn-25" value="" style="edgeStyle=none;orthogonalLoop=1;jettySize=auto;html=1;rounded=0;exitX=0.889;exitY=1.02;exitDx=0;exitDy=0;exitPerimeter=0;entryX=0.889;entryY=0;entryDx=0;entryDy=0;entryPerimeter=0;" edge="1" parent="1">
          <mxGeometry width="80" relative="1" as="geometry">
            <mxPoint x="460.00000000000006" y="220.00000000000006" as="sourcePoint" />
            <mxPoint x="460.00000000000006" y="298.8" as="targetPoint" />
            <Array as="points" />
          </mxGeometry>
        </mxCell>
        <mxCell id="KeFh9lIW5K4wc94P8Azn-26" value="" style="edgeStyle=none;orthogonalLoop=1;jettySize=auto;html=1;rounded=0;exitX=0.889;exitY=1.02;exitDx=0;exitDy=0;exitPerimeter=0;entryX=0.889;entryY=0;entryDx=0;entryDy=0;entryPerimeter=0;" edge="1" parent="1">
          <mxGeometry width="80" relative="1" as="geometry">
            <mxPoint x="390" y="221.20000000000005" as="sourcePoint" />
            <mxPoint x="390" y="300" as="targetPoint" />
            <Array as="points" />
          </mxGeometry>
        </mxCell>
        <mxCell id="KeFh9lIW5K4wc94P8Azn-27" value="" style="edgeStyle=none;orthogonalLoop=1;jettySize=auto;html=1;rounded=0;exitX=0.889;exitY=1.02;exitDx=0;exitDy=0;exitPerimeter=0;entryX=0.889;entryY=0;entryDx=0;entryDy=0;entryPerimeter=0;" edge="1" parent="1">
          <mxGeometry width="80" relative="1" as="geometry">
            <mxPoint x="340.00000000000006" y="220.00000000000006" as="sourcePoint" />
            <mxPoint x="340.00000000000006" y="298.8" as="targetPoint" />
            <Array as="points" />
          </mxGeometry>
        </mxCell>
        <mxCell id="KeFh9lIW5K4wc94P8Azn-30" value="" style="edgeStyle=none;orthogonalLoop=1;jettySize=auto;html=1;rounded=0;exitX=0.889;exitY=1.02;exitDx=0;exitDy=0;exitPerimeter=0;entryX=0.889;entryY=0;entryDx=0;entryDy=0;entryPerimeter=0;" edge="1" parent="1">
          <mxGeometry width="80" relative="1" as="geometry">
            <mxPoint x="270" y="221.20000000000005" as="sourcePoint" />
            <mxPoint x="270" y="300" as="targetPoint" />
            <Array as="points" />
          </mxGeometry>
        </mxCell>
        <mxCell id="KeFh9lIW5K4wc94P8Azn-31" value="" style="edgeStyle=none;orthogonalLoop=1;jettySize=auto;html=1;rounded=0;exitX=0.889;exitY=1.02;exitDx=0;exitDy=0;exitPerimeter=0;entryX=0.889;entryY=0;entryDx=0;entryDy=0;entryPerimeter=0;" edge="1" parent="1">
          <mxGeometry width="80" relative="1" as="geometry">
            <mxPoint x="220.00000000000006" y="220.00000000000006" as="sourcePoint" />
            <mxPoint x="220.00000000000006" y="298.8" as="targetPoint" />
            <Array as="points" />
          </mxGeometry>
        </mxCell>
        <mxCell id="KeFh9lIW5K4wc94P8Azn-33" value="P&lt;sub&gt;0&lt;/sub&gt;" style="text;html=1;align=center;verticalAlign=middle;whiteSpace=wrap;rounded=0;" vertex="1" parent="1">
          <mxGeometry x="580" y="240" width="31" height="30" as="geometry" />
        </mxCell>
        <mxCell id="KeFh9lIW5K4wc94P8Azn-34" value="G&lt;sub&gt;0&lt;/sub&gt;" style="text;html=1;align=center;verticalAlign=middle;whiteSpace=wrap;rounded=0;" vertex="1" parent="1">
          <mxGeometry x="630" y="240" width="31" height="30" as="geometry" />
        </mxCell>
        <mxCell id="KeFh9lIW5K4wc94P8Azn-35" value="P&lt;sub&gt;1&lt;/sub&gt;" style="text;html=1;align=center;verticalAlign=middle;whiteSpace=wrap;rounded=0;" vertex="1" parent="1">
          <mxGeometry x="460" y="240" width="31" height="30" as="geometry" />
        </mxCell>
        <mxCell id="KeFh9lIW5K4wc94P8Azn-36" value="G&lt;sub&gt;1&lt;/sub&gt;" style="text;html=1;align=center;verticalAlign=middle;whiteSpace=wrap;rounded=0;" vertex="1" parent="1">
          <mxGeometry x="510" y="240" width="31" height="30" as="geometry" />
        </mxCell>
        <mxCell id="KeFh9lIW5K4wc94P8Azn-37" value="P&lt;sub&gt;2&lt;/sub&gt;" style="text;html=1;align=center;verticalAlign=middle;whiteSpace=wrap;rounded=0;" vertex="1" parent="1">
          <mxGeometry x="340" y="240" width="31" height="30" as="geometry" />
        </mxCell>
        <mxCell id="KeFh9lIW5K4wc94P8Azn-38" value="G&lt;sub&gt;2&lt;/sub&gt;" style="text;html=1;align=center;verticalAlign=middle;whiteSpace=wrap;rounded=0;" vertex="1" parent="1">
          <mxGeometry x="390" y="240" width="31" height="30" as="geometry" />
        </mxCell>
        <mxCell id="KeFh9lIW5K4wc94P8Azn-39" value="P&lt;sub&gt;3&lt;/sub&gt;" style="text;html=1;align=center;verticalAlign=middle;whiteSpace=wrap;rounded=0;" vertex="1" parent="1">
          <mxGeometry x="220" y="240" width="31" height="30" as="geometry" />
        </mxCell>
        <mxCell id="KeFh9lIW5K4wc94P8Azn-40" value="G&lt;sub&gt;3&lt;/sub&gt;" style="text;html=1;align=center;verticalAlign=middle;whiteSpace=wrap;rounded=0;" vertex="1" parent="1">
          <mxGeometry x="270" y="240" width="31" height="30" as="geometry" />
        </mxCell>
        <mxCell id="KeFh9lIW5K4wc94P8Azn-42" value="C&lt;span style=&quot;font-size: 10px;&quot;&gt;&lt;sub&gt;in&lt;/sub&gt;&lt;/span&gt;" style="text;html=1;align=center;verticalAlign=middle;whiteSpace=wrap;rounded=0;" vertex="1" parent="1">
          <mxGeometry x="668" y="231" width="31" height="30" as="geometry" />
        </mxCell>
        <mxCell id="KeFh9lIW5K4wc94P8Azn-43" value="&lt;span style=&quot;font-size: 20px;&quot;&gt;Sum generator logic&lt;/span&gt;&lt;div&gt;&lt;span style=&quot;font-size: 20px;&quot;&gt;(S&lt;/span&gt;&lt;span style=&quot;font-size: 16.6667px;&quot;&gt;&lt;sub&gt;i&lt;/sub&gt;&amp;nbsp;= A&lt;sub&gt;i&lt;/sub&gt;&amp;nbsp;+&amp;nbsp;&lt;/span&gt;&lt;span style=&quot;font-size: 16.6667px;&quot;&gt;B&lt;/span&gt;&lt;sub&gt;i&lt;/sub&gt;&lt;span style=&quot;font-size: 16.6667px;&quot;&gt;&amp;nbsp;+ C&lt;/span&gt;&lt;sub style=&quot;background-color: initial;&quot;&gt;i - 1&lt;/sub&gt;&lt;span style=&quot;background-color: initial; font-size: 20px;&quot;&gt;)&lt;/span&gt;&lt;/div&gt;" style="rounded=0;whiteSpace=wrap;html=1;fillColor=none;" vertex="1" parent="1">
          <mxGeometry x="160" y="440" width="530" height="60" as="geometry" />
        </mxCell>
        <mxCell id="KeFh9lIW5K4wc94P8Azn-44" value="" style="edgeStyle=none;orthogonalLoop=1;jettySize=auto;html=1;rounded=0;exitX=0.889;exitY=1.02;exitDx=0;exitDy=0;exitPerimeter=0;entryX=0.889;entryY=0;entryDx=0;entryDy=0;entryPerimeter=0;" edge="1" parent="1">
          <mxGeometry width="80" relative="1" as="geometry">
            <mxPoint x="599.8000000000001" y="361.20000000000005" as="sourcePoint" />
            <mxPoint x="599.8000000000001" y="440" as="targetPoint" />
            <Array as="points" />
          </mxGeometry>
        </mxCell>
        <mxCell id="KeFh9lIW5K4wc94P8Azn-45" value="" style="edgeStyle=none;orthogonalLoop=1;jettySize=auto;html=1;rounded=0;exitX=0.889;exitY=1.02;exitDx=0;exitDy=0;exitPerimeter=0;entryX=0.889;entryY=0;entryDx=0;entryDy=0;entryPerimeter=0;" edge="1" parent="1">
          <mxGeometry width="80" relative="1" as="geometry">
            <mxPoint x="480" y="361.20000000000005" as="sourcePoint" />
            <mxPoint x="480" y="440" as="targetPoint" />
            <Array as="points" />
          </mxGeometry>
        </mxCell>
        <mxCell id="KeFh9lIW5K4wc94P8Azn-46" value="" style="edgeStyle=none;orthogonalLoop=1;jettySize=auto;html=1;rounded=0;exitX=0.889;exitY=1.02;exitDx=0;exitDy=0;exitPerimeter=0;entryX=0.889;entryY=0;entryDx=0;entryDy=0;entryPerimeter=0;" edge="1" parent="1">
          <mxGeometry width="80" relative="1" as="geometry">
            <mxPoint x="360" y="361.20000000000005" as="sourcePoint" />
            <mxPoint x="360" y="440" as="targetPoint" />
            <Array as="points" />
          </mxGeometry>
        </mxCell>
        <mxCell id="KeFh9lIW5K4wc94P8Azn-47" value="" style="edgeStyle=none;orthogonalLoop=1;jettySize=auto;html=1;rounded=0;exitX=0.889;exitY=1.02;exitDx=0;exitDy=0;exitPerimeter=0;entryX=0.889;entryY=0;entryDx=0;entryDy=0;entryPerimeter=0;" edge="1" parent="1">
          <mxGeometry width="80" relative="1" as="geometry">
            <mxPoint x="240" y="361.20000000000005" as="sourcePoint" />
            <mxPoint x="240" y="440" as="targetPoint" />
            <Array as="points" />
          </mxGeometry>
        </mxCell>
        <mxCell id="KeFh9lIW5K4wc94P8Azn-48" value="C&lt;sub&gt;0&lt;/sub&gt;" style="text;html=1;align=center;verticalAlign=middle;whiteSpace=wrap;rounded=0;" vertex="1" parent="1">
          <mxGeometry x="600" y="380" width="31" height="30" as="geometry" />
        </mxCell>
        <mxCell id="KeFh9lIW5K4wc94P8Azn-49" value="C&lt;sub&gt;1&lt;/sub&gt;" style="text;html=1;align=center;verticalAlign=middle;whiteSpace=wrap;rounded=0;" vertex="1" parent="1">
          <mxGeometry x="480" y="380" width="31" height="30" as="geometry" />
        </mxCell>
        <mxCell id="KeFh9lIW5K4wc94P8Azn-50" value="C&lt;sub&gt;2&lt;/sub&gt;" style="text;html=1;align=center;verticalAlign=middle;whiteSpace=wrap;rounded=0;" vertex="1" parent="1">
          <mxGeometry x="360" y="380" width="31" height="30" as="geometry" />
        </mxCell>
        <mxCell id="KeFh9lIW5K4wc94P8Azn-52" style="edgeStyle=orthogonalEdgeStyle;rounded=0;orthogonalLoop=1;jettySize=auto;html=1;" edge="1" parent="1" source="KeFh9lIW5K4wc94P8Azn-51">
          <mxGeometry relative="1" as="geometry">
            <mxPoint x="200" y="395" as="targetPoint" />
          </mxGeometry>
        </mxCell>
        <mxCell id="KeFh9lIW5K4wc94P8Azn-51" value="C&lt;sub&gt;3&lt;/sub&gt;" style="text;html=1;align=center;verticalAlign=middle;whiteSpace=wrap;rounded=0;" vertex="1" parent="1">
          <mxGeometry x="240" y="380" width="31" height="30" as="geometry" />
        </mxCell>
        <mxCell id="KeFh9lIW5K4wc94P8Azn-53" value="C&lt;span style=&quot;font-size: 10px;&quot;&gt;&lt;sub&gt;out&lt;/sub&gt;&lt;/span&gt;" style="text;html=1;align=center;verticalAlign=middle;whiteSpace=wrap;rounded=0;" vertex="1" parent="1">
          <mxGeometry x="170" y="380" width="31" height="30" as="geometry" />
        </mxCell>
        <mxCell id="KeFh9lIW5K4wc94P8Azn-54" value="" style="edgeStyle=none;orthogonalLoop=1;jettySize=auto;html=1;rounded=0;entryX=0.889;entryY=0;entryDx=0;entryDy=0;entryPerimeter=0;" edge="1" parent="1">
          <mxGeometry width="80" relative="1" as="geometry">
            <mxPoint x="685" y="260" as="sourcePoint" />
            <mxPoint x="675.0000000000001" y="298.8" as="targetPoint" />
            <Array as="points">
              <mxPoint x="675" y="260" />
            </Array>
          </mxGeometry>
        </mxCell>
        <mxCell id="KeFh9lIW5K4wc94P8Azn-55" value="" style="ellipse;whiteSpace=wrap;html=1;aspect=fixed;fillColor=none;" vertex="1" parent="1">
          <mxGeometry x="414" y="477" width="10" height="10" as="geometry" />
        </mxCell>
        <mxCell id="KeFh9lIW5K4wc94P8Azn-56" value="" style="ellipse;whiteSpace=wrap;html=1;aspect=fixed;fillColor=none;" vertex="1" parent="1">
          <mxGeometry x="446" y="477" width="10" height="10" as="geometry" />
        </mxCell>
        <mxCell id="KeFh9lIW5K4wc94P8Azn-57" value="" style="edgeStyle=none;orthogonalLoop=1;jettySize=auto;html=1;rounded=0;exitX=0.889;exitY=1.02;exitDx=0;exitDy=0;exitPerimeter=0;" edge="1" parent="1">
          <mxGeometry width="80" relative="1" as="geometry">
            <mxPoint x="599.8000000000001" y="500.00000000000006" as="sourcePoint" />
            <mxPoint x="600" y="540" as="targetPoint" />
            <Array as="points" />
          </mxGeometry>
        </mxCell>
        <mxCell id="KeFh9lIW5K4wc94P8Azn-58" value="" style="edgeStyle=none;orthogonalLoop=1;jettySize=auto;html=1;rounded=0;exitX=0.889;exitY=1.02;exitDx=0;exitDy=0;exitPerimeter=0;" edge="1" parent="1">
          <mxGeometry width="80" relative="1" as="geometry">
            <mxPoint x="480" y="500.00000000000006" as="sourcePoint" />
            <mxPoint x="480" y="540" as="targetPoint" />
            <Array as="points" />
          </mxGeometry>
        </mxCell>
        <mxCell id="KeFh9lIW5K4wc94P8Azn-59" value="" style="edgeStyle=none;orthogonalLoop=1;jettySize=auto;html=1;rounded=0;exitX=0.889;exitY=1.02;exitDx=0;exitDy=0;exitPerimeter=0;" edge="1" parent="1">
          <mxGeometry width="80" relative="1" as="geometry">
            <mxPoint x="360" y="500.00000000000006" as="sourcePoint" />
            <mxPoint x="360" y="540" as="targetPoint" />
            <Array as="points" />
          </mxGeometry>
        </mxCell>
        <mxCell id="KeFh9lIW5K4wc94P8Azn-60" value="" style="edgeStyle=none;orthogonalLoop=1;jettySize=auto;html=1;rounded=0;exitX=0.889;exitY=1.02;exitDx=0;exitDy=0;exitPerimeter=0;" edge="1" parent="1">
          <mxGeometry width="80" relative="1" as="geometry">
            <mxPoint x="240" y="500.00000000000006" as="sourcePoint" />
            <mxPoint x="240" y="540" as="targetPoint" />
            <Array as="points" />
          </mxGeometry>
        </mxCell>
        <mxCell id="KeFh9lIW5K4wc94P8Azn-61" value="S&lt;sub&gt;0&lt;/sub&gt;" style="text;html=1;align=center;verticalAlign=middle;whiteSpace=wrap;rounded=0;" vertex="1" parent="1">
          <mxGeometry x="608" y="510.79999999999995" width="31" height="30" as="geometry" />
        </mxCell>
        <mxCell id="KeFh9lIW5K4wc94P8Azn-62" value="S&lt;sub&gt;1&lt;/sub&gt;" style="text;html=1;align=center;verticalAlign=middle;whiteSpace=wrap;rounded=0;" vertex="1" parent="1">
          <mxGeometry x="488" y="510.79999999999995" width="31" height="30" as="geometry" />
        </mxCell>
        <mxCell id="KeFh9lIW5K4wc94P8Azn-63" value="S&lt;sub&gt;2&lt;/sub&gt;" style="text;html=1;align=center;verticalAlign=middle;whiteSpace=wrap;rounded=0;" vertex="1" parent="1">
          <mxGeometry x="368" y="510.79999999999995" width="31" height="30" as="geometry" />
        </mxCell>
        <mxCell id="KeFh9lIW5K4wc94P8Azn-64" value="S&lt;sub&gt;3&lt;/sub&gt;" style="text;html=1;align=center;verticalAlign=middle;whiteSpace=wrap;rounded=0;" vertex="1" parent="1">
          <mxGeometry x="248" y="510.79999999999995" width="31" height="30" as="geometry" />
        </mxCell>
        <mxCell id="KeFh9lIW5K4wc94P8Azn-66" value="" style="shape=curlyBracket;whiteSpace=wrap;html=1;rounded=1;labelPosition=left;verticalLabelPosition=middle;align=right;verticalAlign=middle;size=0.5;" vertex="1" parent="1">
          <mxGeometry x="120" y="155" width="11.67" height="70" as="geometry" />
        </mxCell>
        <mxCell id="KeFh9lIW5K4wc94P8Azn-67" value="" style="shape=curlyBracket;whiteSpace=wrap;html=1;rounded=1;flipH=1;labelPosition=right;verticalLabelPosition=middle;align=left;verticalAlign=middle;" vertex="1" parent="1">
          <mxGeometry x="720" y="150" width="12.5" height="70" as="geometry" />
        </mxCell>
        <mxCell id="KeFh9lIW5K4wc94P8Azn-68" value="" style="shape=curlyBracket;whiteSpace=wrap;html=1;rounded=1;labelPosition=left;verticalLabelPosition=middle;align=right;verticalAlign=middle;size=0.5;" vertex="1" parent="1">
          <mxGeometry x="120" y="297.5" width="11.67" height="70" as="geometry" />
        </mxCell>
        <mxCell id="KeFh9lIW5K4wc94P8Azn-69" value="" style="shape=curlyBracket;whiteSpace=wrap;html=1;rounded=1;flipH=1;labelPosition=right;verticalLabelPosition=middle;align=left;verticalAlign=middle;" vertex="1" parent="1">
          <mxGeometry x="720" y="292.5" width="12.5" height="70" as="geometry" />
        </mxCell>
        <mxCell id="KeFh9lIW5K4wc94P8Azn-72" value="" style="shape=curlyBracket;whiteSpace=wrap;html=1;rounded=1;labelPosition=left;verticalLabelPosition=middle;align=right;verticalAlign=middle;size=0.5;" vertex="1" parent="1">
          <mxGeometry x="120" y="437.5" width="11.67" height="70" as="geometry" />
        </mxCell>
        <mxCell id="KeFh9lIW5K4wc94P8Azn-73" value="" style="shape=curlyBracket;whiteSpace=wrap;html=1;rounded=1;flipH=1;labelPosition=right;verticalLabelPosition=middle;align=left;verticalAlign=middle;" vertex="1" parent="1">
          <mxGeometry x="720" y="432.5" width="12.5" height="70" as="geometry" />
        </mxCell>
        <mxCell id="KeFh9lIW5K4wc94P8Azn-74" value="Cost" style="text;html=1;align=center;verticalAlign=middle;whiteSpace=wrap;rounded=1;fillColor=#ffe6cc;strokeColor=#d79b00;arcSize=50;" vertex="1" parent="1">
          <mxGeometry x="760" y="100" width="60" height="30" as="geometry" />
        </mxCell>
        <mxCell id="KeFh9lIW5K4wc94P8Azn-76" value="2(4) = 8" style="text;html=1;align=center;verticalAlign=middle;whiteSpace=wrap;rounded=1;fillColor=#ffe6cc;strokeColor=#d79b00;arcSize=50;" vertex="1" parent="1">
          <mxGeometry x="760" y="170" width="60" height="30" as="geometry" />
        </mxCell>
        <mxCell id="KeFh9lIW5K4wc94P8Azn-77" value="[4&lt;sup&gt;2&amp;nbsp;&lt;/sup&gt;+ 3(4)] / 2 = 14" style="text;html=1;align=center;verticalAlign=middle;whiteSpace=wrap;rounded=1;fillColor=#ffe6cc;strokeColor=#d79b00;arcSize=50;" vertex="1" parent="1">
          <mxGeometry x="752.5" y="308.75" width="75" height="37.5" as="geometry" />
        </mxCell>
        <mxCell id="KeFh9lIW5K4wc94P8Azn-78" value="4" style="text;html=1;align=center;verticalAlign=middle;whiteSpace=wrap;rounded=1;fillColor=#ffe6cc;strokeColor=#d79b00;arcSize=50;" vertex="1" parent="1">
          <mxGeometry x="760" y="452.5" width="60" height="30" as="geometry" />
        </mxCell>
        <mxCell id="KeFh9lIW5K4wc94P8Azn-79" value="Delay" style="text;html=1;align=center;verticalAlign=middle;whiteSpace=wrap;rounded=1;fillColor=#d5e8d4;strokeColor=#82b366;arcSize=50;" vertex="1" parent="1">
          <mxGeometry x="37.5" y="104.5" width="60" height="30" as="geometry" />
        </mxCell>
        <mxCell id="KeFh9lIW5K4wc94P8Azn-80" value="d" style="text;html=1;align=center;verticalAlign=middle;whiteSpace=wrap;rounded=1;fillColor=#d5e8d4;strokeColor=#82b366;arcSize=50;" vertex="1" parent="1">
          <mxGeometry x="37.5" y="174.5" width="60" height="30" as="geometry" />
        </mxCell>
        <mxCell id="KeFh9lIW5K4wc94P8Azn-82" value="d" style="text;html=1;align=center;verticalAlign=middle;whiteSpace=wrap;rounded=1;fillColor=#d5e8d4;strokeColor=#82b366;arcSize=50;" vertex="1" parent="1">
          <mxGeometry x="37.5" y="455" width="60" height="30" as="geometry" />
        </mxCell>
        <mxCell id="KeFh9lIW5K4wc94P8Azn-83" value="2d" style="text;html=1;align=center;verticalAlign=middle;whiteSpace=wrap;rounded=1;fillColor=#d5e8d4;strokeColor=#82b366;arcSize=50;" vertex="1" parent="1">
          <mxGeometry x="37.5" y="317.5" width="60" height="30" as="geometry" />
        </mxCell>
        <mxCell id="KeFh9lIW5K4wc94P8Azn-84" value="" style="shape=curlyBracket;whiteSpace=wrap;html=1;rounded=1;labelPosition=left;verticalLabelPosition=middle;align=right;verticalAlign=middle;size=0.5;" vertex="1" parent="1">
          <mxGeometry x="-16" y="161" width="33.18" height="199" as="geometry" />
        </mxCell>
        <mxCell id="KeFh9lIW5K4wc94P8Azn-85" value="330 ns" style="text;html=1;align=center;verticalAlign=middle;whiteSpace=wrap;rounded=1;fillColor=#d5e8d4;strokeColor=#82b366;arcSize=50;" vertex="1" parent="1">
          <mxGeometry x="-100" y="245.5" width="60" height="30" as="geometry" />
        </mxCell>
      </root>
    </mxGraphModel>
  </diagram>
  <diagram id="r5IUVMMVqcNJ9QVLbfym" name="4">
    <mxGraphModel dx="1434" dy="759" grid="1" gridSize="10" guides="1" tooltips="1" connect="1" arrows="1" fold="1" page="1" pageScale="1" pageWidth="827" pageHeight="1169" math="0" shadow="0">
      <root>
        <mxCell id="0" />
        <mxCell id="1" parent="0" />
        <mxCell id="7ZfoY5y6-u2EVlnCuCaT-1" style="edgeStyle=orthogonalEdgeStyle;rounded=0;orthogonalLoop=1;jettySize=auto;html=1;exitX=0.25;exitY=0;exitDx=0;exitDy=0;startArrow=dash;startFill=0;entryX=0.5;entryY=1;entryDx=0;entryDy=0;" edge="1" source="7ZfoY5y6-u2EVlnCuCaT-3" parent="1" target="7ZfoY5y6-u2EVlnCuCaT-83">
          <mxGeometry relative="1" as="geometry">
            <mxPoint x="680" y="162" as="targetPoint" />
          </mxGeometry>
        </mxCell>
        <mxCell id="7ZfoY5y6-u2EVlnCuCaT-2" style="edgeStyle=orthogonalEdgeStyle;rounded=0;orthogonalLoop=1;jettySize=auto;html=1;exitX=0.75;exitY=0;exitDx=0;exitDy=0;entryX=0;entryY=0.5;entryDx=0;entryDy=0;" edge="1" source="7ZfoY5y6-u2EVlnCuCaT-3" target="7ZfoY5y6-u2EVlnCuCaT-8" parent="1">
          <mxGeometry relative="1" as="geometry" />
        </mxCell>
        <mxCell id="7ZfoY5y6-u2EVlnCuCaT-3" value="4bits Full Adder" style="rounded=0;whiteSpace=wrap;html=1;flipH=0;flipV=1;direction=south;fillColor=none;" vertex="1" parent="1">
          <mxGeometry x="470" y="140" width="70" height="90" as="geometry" />
        </mxCell>
        <mxCell id="7ZfoY5y6-u2EVlnCuCaT-4" style="edgeStyle=orthogonalEdgeStyle;rounded=0;orthogonalLoop=1;jettySize=auto;html=1;entryX=0;entryY=0.5;entryDx=0;entryDy=0;" edge="1" source="7ZfoY5y6-u2EVlnCuCaT-5" target="7ZfoY5y6-u2EVlnCuCaT-3" parent="1">
          <mxGeometry relative="1" as="geometry" />
        </mxCell>
        <mxCell id="7ZfoY5y6-u2EVlnCuCaT-5" value="0" style="text;html=1;align=center;verticalAlign=middle;whiteSpace=wrap;rounded=0;" vertex="1" parent="1">
          <mxGeometry x="430" y="100" width="30" height="20" as="geometry" />
        </mxCell>
        <mxCell id="7ZfoY5y6-u2EVlnCuCaT-6" value="&lt;font style=&quot;font-size: 7px;&quot;&gt;active&lt;/font&gt;" style="text;html=1;align=center;verticalAlign=middle;whiteSpace=wrap;rounded=0;" vertex="1" parent="1">
          <mxGeometry x="495" y="218" width="20" height="10" as="geometry" />
        </mxCell>
        <mxCell id="7ZfoY5y6-u2EVlnCuCaT-7" value="&lt;font style=&quot;font-size: 7px;&quot;&gt;sum&lt;/font&gt;" style="text;html=1;align=center;verticalAlign=middle;whiteSpace=wrap;rounded=0;" vertex="1" parent="1">
          <mxGeometry x="527" y="155" width="10" height="10" as="geometry" />
        </mxCell>
        <mxCell id="7ZfoY5y6-u2EVlnCuCaT-8" value="0" style="text;html=1;align=center;verticalAlign=middle;whiteSpace=wrap;rounded=0;" vertex="1" parent="1">
          <mxGeometry x="580" y="198" width="40" height="20" as="geometry" />
        </mxCell>
        <mxCell id="7ZfoY5y6-u2EVlnCuCaT-9" style="edgeStyle=orthogonalEdgeStyle;rounded=0;orthogonalLoop=1;jettySize=auto;html=1;entryX=0.25;entryY=1;entryDx=0;entryDy=0;startArrow=dash;startFill=0;" edge="1" source="7ZfoY5y6-u2EVlnCuCaT-10" target="7ZfoY5y6-u2EVlnCuCaT-3" parent="1">
          <mxGeometry relative="1" as="geometry" />
        </mxCell>
        <mxCell id="7ZfoY5y6-u2EVlnCuCaT-10" value="0101" style="text;html=1;align=center;verticalAlign=middle;whiteSpace=wrap;rounded=0;" vertex="1" parent="1">
          <mxGeometry x="400" y="152" width="30" height="20" as="geometry" />
        </mxCell>
        <mxCell id="7ZfoY5y6-u2EVlnCuCaT-11" style="edgeStyle=orthogonalEdgeStyle;rounded=0;orthogonalLoop=1;jettySize=auto;html=1;entryX=0.75;entryY=1;entryDx=0;entryDy=0;startArrow=dash;startFill=0;" edge="1" source="7ZfoY5y6-u2EVlnCuCaT-12" target="7ZfoY5y6-u2EVlnCuCaT-3" parent="1">
          <mxGeometry relative="1" as="geometry" />
        </mxCell>
        <mxCell id="7ZfoY5y6-u2EVlnCuCaT-12" value="0000" style="text;html=1;align=center;verticalAlign=middle;whiteSpace=wrap;rounded=0;" vertex="1" parent="1">
          <mxGeometry x="400" y="198" width="30" height="20" as="geometry" />
        </mxCell>
        <mxCell id="7ZfoY5y6-u2EVlnCuCaT-13" value="&lt;font style=&quot;font-size: 7px;&quot;&gt;C_in&lt;/font&gt;" style="text;html=1;align=center;verticalAlign=middle;whiteSpace=wrap;rounded=0;" vertex="1" parent="1">
          <mxGeometry x="495" y="140" width="20" height="10" as="geometry" />
        </mxCell>
        <mxCell id="7ZfoY5y6-u2EVlnCuCaT-14" value="&lt;font style=&quot;font-size: 7px;&quot;&gt;C_out&lt;/font&gt;" style="text;html=1;align=center;verticalAlign=bottom;whiteSpace=wrap;rounded=0;" vertex="1" parent="1">
          <mxGeometry x="519" y="204" width="20" height="10" as="geometry" />
        </mxCell>
        <mxCell id="7ZfoY5y6-u2EVlnCuCaT-15" style="edgeStyle=orthogonalEdgeStyle;rounded=0;orthogonalLoop=1;jettySize=auto;html=1;exitX=0.25;exitY=0;exitDx=0;exitDy=0;startArrow=dash;startFill=0;entryX=0.5;entryY=0;entryDx=0;entryDy=0;" edge="1" parent="1" source="7ZfoY5y6-u2EVlnCuCaT-17" target="7ZfoY5y6-u2EVlnCuCaT-78">
          <mxGeometry relative="1" as="geometry">
            <mxPoint x="310" y="342.46153846153834" as="targetPoint" />
          </mxGeometry>
        </mxCell>
        <mxCell id="7ZfoY5y6-u2EVlnCuCaT-16" style="edgeStyle=orthogonalEdgeStyle;rounded=0;orthogonalLoop=1;jettySize=auto;html=1;exitX=0.75;exitY=0;exitDx=0;exitDy=0;entryX=0;entryY=0.5;entryDx=0;entryDy=0;" edge="1" parent="1" source="7ZfoY5y6-u2EVlnCuCaT-17" target="7ZfoY5y6-u2EVlnCuCaT-22">
          <mxGeometry relative="1" as="geometry" />
        </mxCell>
        <mxCell id="7ZfoY5y6-u2EVlnCuCaT-17" value="4bits Full Adder" style="rounded=0;whiteSpace=wrap;html=1;flipH=0;flipV=1;direction=south;fillColor=none;" vertex="1" parent="1">
          <mxGeometry x="200" y="320" width="70" height="90" as="geometry" />
        </mxCell>
        <mxCell id="7ZfoY5y6-u2EVlnCuCaT-18" style="edgeStyle=orthogonalEdgeStyle;rounded=0;orthogonalLoop=1;jettySize=auto;html=1;entryX=0;entryY=0.5;entryDx=0;entryDy=0;" edge="1" parent="1" source="7ZfoY5y6-u2EVlnCuCaT-19" target="7ZfoY5y6-u2EVlnCuCaT-17">
          <mxGeometry relative="1" as="geometry" />
        </mxCell>
        <mxCell id="7ZfoY5y6-u2EVlnCuCaT-19" value="0" style="text;html=1;align=center;verticalAlign=middle;whiteSpace=wrap;rounded=0;" vertex="1" parent="1">
          <mxGeometry x="160" y="280" width="30" height="20" as="geometry" />
        </mxCell>
        <mxCell id="7ZfoY5y6-u2EVlnCuCaT-20" value="&lt;font style=&quot;font-size: 7px;&quot;&gt;active&lt;/font&gt;" style="text;html=1;align=center;verticalAlign=middle;whiteSpace=wrap;rounded=0;" vertex="1" parent="1">
          <mxGeometry x="225" y="398" width="20" height="10" as="geometry" />
        </mxCell>
        <mxCell id="7ZfoY5y6-u2EVlnCuCaT-21" value="&lt;font style=&quot;font-size: 7px;&quot;&gt;sum&lt;/font&gt;" style="text;html=1;align=center;verticalAlign=middle;whiteSpace=wrap;rounded=0;" vertex="1" parent="1">
          <mxGeometry x="257" y="335" width="10" height="10" as="geometry" />
        </mxCell>
        <mxCell id="7ZfoY5y6-u2EVlnCuCaT-22" value="0" style="text;html=1;align=center;verticalAlign=middle;whiteSpace=wrap;rounded=0;" vertex="1" parent="1">
          <mxGeometry x="310" y="378" width="40" height="20" as="geometry" />
        </mxCell>
        <mxCell id="7ZfoY5y6-u2EVlnCuCaT-23" style="edgeStyle=orthogonalEdgeStyle;rounded=0;orthogonalLoop=1;jettySize=auto;html=1;entryX=0.25;entryY=1;entryDx=0;entryDy=0;startArrow=dash;startFill=0;" edge="1" parent="1" source="7ZfoY5y6-u2EVlnCuCaT-24" target="7ZfoY5y6-u2EVlnCuCaT-17">
          <mxGeometry relative="1" as="geometry" />
        </mxCell>
        <mxCell id="7ZfoY5y6-u2EVlnCuCaT-24" value="0001" style="text;html=1;align=center;verticalAlign=middle;whiteSpace=wrap;rounded=0;" vertex="1" parent="1">
          <mxGeometry x="130" y="332" width="30" height="20" as="geometry" />
        </mxCell>
        <mxCell id="7ZfoY5y6-u2EVlnCuCaT-25" style="edgeStyle=orthogonalEdgeStyle;rounded=0;orthogonalLoop=1;jettySize=auto;html=1;entryX=0.75;entryY=1;entryDx=0;entryDy=0;startArrow=dash;startFill=0;" edge="1" parent="1" source="7ZfoY5y6-u2EVlnCuCaT-26" target="7ZfoY5y6-u2EVlnCuCaT-17">
          <mxGeometry relative="1" as="geometry" />
        </mxCell>
        <mxCell id="7ZfoY5y6-u2EVlnCuCaT-26" value="0000" style="text;html=1;align=center;verticalAlign=middle;whiteSpace=wrap;rounded=0;" vertex="1" parent="1">
          <mxGeometry x="130" y="378" width="30" height="20" as="geometry" />
        </mxCell>
        <mxCell id="7ZfoY5y6-u2EVlnCuCaT-27" value="&lt;font style=&quot;font-size: 7px;&quot;&gt;C_in&lt;/font&gt;" style="text;html=1;align=center;verticalAlign=middle;whiteSpace=wrap;rounded=0;" vertex="1" parent="1">
          <mxGeometry x="225" y="320" width="20" height="10" as="geometry" />
        </mxCell>
        <mxCell id="7ZfoY5y6-u2EVlnCuCaT-28" value="&lt;font style=&quot;font-size: 7px;&quot;&gt;C_out&lt;/font&gt;" style="text;html=1;align=center;verticalAlign=bottom;whiteSpace=wrap;rounded=0;" vertex="1" parent="1">
          <mxGeometry x="249" y="384" width="20" height="10" as="geometry" />
        </mxCell>
        <mxCell id="7ZfoY5y6-u2EVlnCuCaT-29" style="edgeStyle=orthogonalEdgeStyle;rounded=0;orthogonalLoop=1;jettySize=auto;html=1;exitX=0.25;exitY=0;exitDx=0;exitDy=0;startArrow=dash;startFill=0;entryX=0.25;entryY=1;entryDx=0;entryDy=0;" edge="1" parent="1" source="7ZfoY5y6-u2EVlnCuCaT-31" target="7ZfoY5y6-u2EVlnCuCaT-68">
          <mxGeometry relative="1" as="geometry">
            <mxPoint x="310" y="542.4615384615383" as="targetPoint" />
          </mxGeometry>
        </mxCell>
        <mxCell id="7ZfoY5y6-u2EVlnCuCaT-30" style="edgeStyle=orthogonalEdgeStyle;rounded=0;orthogonalLoop=1;jettySize=auto;html=1;exitX=0.75;exitY=0;exitDx=0;exitDy=0;entryX=0;entryY=0.5;entryDx=0;entryDy=0;" edge="1" parent="1" source="7ZfoY5y6-u2EVlnCuCaT-31" target="7ZfoY5y6-u2EVlnCuCaT-36">
          <mxGeometry relative="1" as="geometry" />
        </mxCell>
        <mxCell id="7ZfoY5y6-u2EVlnCuCaT-31" value="4bits Full Adder" style="rounded=0;whiteSpace=wrap;html=1;flipH=0;flipV=1;direction=south;fillColor=none;" vertex="1" parent="1">
          <mxGeometry x="200" y="520" width="70" height="90" as="geometry" />
        </mxCell>
        <mxCell id="7ZfoY5y6-u2EVlnCuCaT-32" style="edgeStyle=orthogonalEdgeStyle;rounded=0;orthogonalLoop=1;jettySize=auto;html=1;entryX=0;entryY=0.5;entryDx=0;entryDy=0;" edge="1" parent="1" source="7ZfoY5y6-u2EVlnCuCaT-33" target="7ZfoY5y6-u2EVlnCuCaT-31">
          <mxGeometry relative="1" as="geometry" />
        </mxCell>
        <mxCell id="7ZfoY5y6-u2EVlnCuCaT-33" value="0" style="text;html=1;align=center;verticalAlign=middle;whiteSpace=wrap;rounded=0;" vertex="1" parent="1">
          <mxGeometry x="160" y="480" width="30" height="20" as="geometry" />
        </mxCell>
        <mxCell id="7ZfoY5y6-u2EVlnCuCaT-34" value="&lt;font style=&quot;font-size: 7px;&quot;&gt;active&lt;/font&gt;" style="text;html=1;align=center;verticalAlign=middle;whiteSpace=wrap;rounded=0;" vertex="1" parent="1">
          <mxGeometry x="225" y="598" width="20" height="10" as="geometry" />
        </mxCell>
        <mxCell id="7ZfoY5y6-u2EVlnCuCaT-35" value="&lt;font style=&quot;font-size: 7px;&quot;&gt;sum&lt;/font&gt;" style="text;html=1;align=center;verticalAlign=middle;whiteSpace=wrap;rounded=0;" vertex="1" parent="1">
          <mxGeometry x="257" y="535" width="10" height="10" as="geometry" />
        </mxCell>
        <mxCell id="7ZfoY5y6-u2EVlnCuCaT-36" value="0" style="text;html=1;align=center;verticalAlign=middle;whiteSpace=wrap;rounded=0;" vertex="1" parent="1">
          <mxGeometry x="310" y="578" width="40" height="20" as="geometry" />
        </mxCell>
        <mxCell id="7ZfoY5y6-u2EVlnCuCaT-37" style="edgeStyle=orthogonalEdgeStyle;rounded=0;orthogonalLoop=1;jettySize=auto;html=1;entryX=0.25;entryY=1;entryDx=0;entryDy=0;startArrow=dash;startFill=0;" edge="1" parent="1" source="7ZfoY5y6-u2EVlnCuCaT-38" target="7ZfoY5y6-u2EVlnCuCaT-31">
          <mxGeometry relative="1" as="geometry" />
        </mxCell>
        <mxCell id="7ZfoY5y6-u2EVlnCuCaT-38" value="0010" style="text;html=1;align=center;verticalAlign=middle;whiteSpace=wrap;rounded=0;" vertex="1" parent="1">
          <mxGeometry x="130" y="532" width="30" height="20" as="geometry" />
        </mxCell>
        <mxCell id="7ZfoY5y6-u2EVlnCuCaT-39" style="edgeStyle=orthogonalEdgeStyle;rounded=0;orthogonalLoop=1;jettySize=auto;html=1;entryX=0.75;entryY=1;entryDx=0;entryDy=0;startArrow=dash;startFill=0;" edge="1" parent="1" source="7ZfoY5y6-u2EVlnCuCaT-40" target="7ZfoY5y6-u2EVlnCuCaT-31">
          <mxGeometry relative="1" as="geometry" />
        </mxCell>
        <mxCell id="7ZfoY5y6-u2EVlnCuCaT-40" value="0000" style="text;html=1;align=center;verticalAlign=middle;whiteSpace=wrap;rounded=0;" vertex="1" parent="1">
          <mxGeometry x="130" y="578" width="30" height="20" as="geometry" />
        </mxCell>
        <mxCell id="7ZfoY5y6-u2EVlnCuCaT-41" value="&lt;font style=&quot;font-size: 7px;&quot;&gt;C_in&lt;/font&gt;" style="text;html=1;align=center;verticalAlign=middle;whiteSpace=wrap;rounded=0;" vertex="1" parent="1">
          <mxGeometry x="225" y="520" width="20" height="10" as="geometry" />
        </mxCell>
        <mxCell id="7ZfoY5y6-u2EVlnCuCaT-42" value="&lt;font style=&quot;font-size: 7px;&quot;&gt;C_out&lt;/font&gt;" style="text;html=1;align=center;verticalAlign=bottom;whiteSpace=wrap;rounded=0;" vertex="1" parent="1">
          <mxGeometry x="249" y="584" width="20" height="10" as="geometry" />
        </mxCell>
        <mxCell id="7ZfoY5y6-u2EVlnCuCaT-44" style="edgeStyle=orthogonalEdgeStyle;rounded=0;orthogonalLoop=1;jettySize=auto;html=1;exitX=0.25;exitY=0;exitDx=0;exitDy=0;startArrow=dash;startFill=0;entryX=0.75;entryY=1;entryDx=0;entryDy=0;" edge="1" source="7ZfoY5y6-u2EVlnCuCaT-46" parent="1" target="7ZfoY5y6-u2EVlnCuCaT-68">
          <mxGeometry relative="1" as="geometry">
            <mxPoint x="310" y="742.4615384615383" as="targetPoint" />
          </mxGeometry>
        </mxCell>
        <mxCell id="7ZfoY5y6-u2EVlnCuCaT-45" style="edgeStyle=orthogonalEdgeStyle;rounded=0;orthogonalLoop=1;jettySize=auto;html=1;exitX=0.75;exitY=0;exitDx=0;exitDy=0;entryX=0;entryY=0.5;entryDx=0;entryDy=0;" edge="1" source="7ZfoY5y6-u2EVlnCuCaT-46" target="7ZfoY5y6-u2EVlnCuCaT-51" parent="1">
          <mxGeometry relative="1" as="geometry" />
        </mxCell>
        <mxCell id="7ZfoY5y6-u2EVlnCuCaT-46" value="4bits Full Adder" style="rounded=0;whiteSpace=wrap;html=1;flipH=0;flipV=1;direction=south;fillColor=none;" vertex="1" parent="1">
          <mxGeometry x="200" y="720" width="70" height="90" as="geometry" />
        </mxCell>
        <mxCell id="7ZfoY5y6-u2EVlnCuCaT-47" style="edgeStyle=orthogonalEdgeStyle;rounded=0;orthogonalLoop=1;jettySize=auto;html=1;entryX=0;entryY=0.5;entryDx=0;entryDy=0;" edge="1" source="7ZfoY5y6-u2EVlnCuCaT-48" target="7ZfoY5y6-u2EVlnCuCaT-46" parent="1">
          <mxGeometry relative="1" as="geometry" />
        </mxCell>
        <mxCell id="7ZfoY5y6-u2EVlnCuCaT-48" value="0" style="text;html=1;align=center;verticalAlign=middle;whiteSpace=wrap;rounded=0;" vertex="1" parent="1">
          <mxGeometry x="160" y="680" width="30" height="20" as="geometry" />
        </mxCell>
        <mxCell id="7ZfoY5y6-u2EVlnCuCaT-49" value="&lt;font style=&quot;font-size: 7px;&quot;&gt;active&lt;/font&gt;" style="text;html=1;align=center;verticalAlign=middle;whiteSpace=wrap;rounded=0;" vertex="1" parent="1">
          <mxGeometry x="225" y="798" width="20" height="10" as="geometry" />
        </mxCell>
        <mxCell id="7ZfoY5y6-u2EVlnCuCaT-50" value="&lt;font style=&quot;font-size: 7px;&quot;&gt;sum&lt;/font&gt;" style="text;html=1;align=center;verticalAlign=middle;whiteSpace=wrap;rounded=0;" vertex="1" parent="1">
          <mxGeometry x="257" y="735" width="10" height="10" as="geometry" />
        </mxCell>
        <mxCell id="7ZfoY5y6-u2EVlnCuCaT-51" value="0" style="text;html=1;align=center;verticalAlign=middle;whiteSpace=wrap;rounded=0;" vertex="1" parent="1">
          <mxGeometry x="310" y="778" width="40" height="20" as="geometry" />
        </mxCell>
        <mxCell id="7ZfoY5y6-u2EVlnCuCaT-52" style="edgeStyle=orthogonalEdgeStyle;rounded=0;orthogonalLoop=1;jettySize=auto;html=1;entryX=0.25;entryY=1;entryDx=0;entryDy=0;startArrow=dash;startFill=0;" edge="1" source="7ZfoY5y6-u2EVlnCuCaT-53" target="7ZfoY5y6-u2EVlnCuCaT-46" parent="1">
          <mxGeometry relative="1" as="geometry" />
        </mxCell>
        <mxCell id="7ZfoY5y6-u2EVlnCuCaT-53" value="0100" style="text;html=1;align=center;verticalAlign=middle;whiteSpace=wrap;rounded=0;" vertex="1" parent="1">
          <mxGeometry x="130" y="732" width="30" height="20" as="geometry" />
        </mxCell>
        <mxCell id="7ZfoY5y6-u2EVlnCuCaT-54" style="edgeStyle=orthogonalEdgeStyle;rounded=0;orthogonalLoop=1;jettySize=auto;html=1;entryX=0.75;entryY=1;entryDx=0;entryDy=0;startArrow=dash;startFill=0;" edge="1" source="7ZfoY5y6-u2EVlnCuCaT-55" target="7ZfoY5y6-u2EVlnCuCaT-46" parent="1">
          <mxGeometry relative="1" as="geometry" />
        </mxCell>
        <mxCell id="7ZfoY5y6-u2EVlnCuCaT-55" value="0000" style="text;html=1;align=center;verticalAlign=middle;whiteSpace=wrap;rounded=0;" vertex="1" parent="1">
          <mxGeometry x="130" y="778" width="30" height="20" as="geometry" />
        </mxCell>
        <mxCell id="7ZfoY5y6-u2EVlnCuCaT-56" value="&lt;font style=&quot;font-size: 7px;&quot;&gt;C_in&lt;/font&gt;" style="text;html=1;align=center;verticalAlign=middle;whiteSpace=wrap;rounded=0;" vertex="1" parent="1">
          <mxGeometry x="225" y="720" width="20" height="10" as="geometry" />
        </mxCell>
        <mxCell id="7ZfoY5y6-u2EVlnCuCaT-57" value="&lt;font style=&quot;font-size: 7px;&quot;&gt;C_out&lt;/font&gt;" style="text;html=1;align=center;verticalAlign=bottom;whiteSpace=wrap;rounded=0;" vertex="1" parent="1">
          <mxGeometry x="249" y="784" width="20" height="10" as="geometry" />
        </mxCell>
        <mxCell id="7ZfoY5y6-u2EVlnCuCaT-59" style="edgeStyle=orthogonalEdgeStyle;rounded=0;orthogonalLoop=1;jettySize=auto;html=1;exitX=1;exitY=0.5;exitDx=0;exitDy=0;entryX=1;entryY=0.5;entryDx=0;entryDy=0;" edge="1" parent="1" source="7ZfoY5y6-u2EVlnCuCaT-58" target="7ZfoY5y6-u2EVlnCuCaT-3">
          <mxGeometry relative="1" as="geometry" />
        </mxCell>
        <mxCell id="7ZfoY5y6-u2EVlnCuCaT-58" value="a&lt;sub&gt;0&lt;/sub&gt;" style="text;html=1;align=center;verticalAlign=middle;whiteSpace=wrap;rounded=0;" vertex="1" parent="1">
          <mxGeometry x="430" y="250" width="30" height="20" as="geometry" />
        </mxCell>
        <mxCell id="7ZfoY5y6-u2EVlnCuCaT-61" style="edgeStyle=orthogonalEdgeStyle;rounded=0;orthogonalLoop=1;jettySize=auto;html=1;entryX=1;entryY=0.5;entryDx=0;entryDy=0;" edge="1" parent="1" source="7ZfoY5y6-u2EVlnCuCaT-60" target="7ZfoY5y6-u2EVlnCuCaT-17">
          <mxGeometry relative="1" as="geometry" />
        </mxCell>
        <mxCell id="7ZfoY5y6-u2EVlnCuCaT-60" value="a&lt;span style=&quot;font-size: 10px;&quot;&gt;&lt;sub&gt;1&lt;/sub&gt;&lt;/span&gt;" style="text;html=1;align=center;verticalAlign=middle;whiteSpace=wrap;rounded=0;" vertex="1" parent="1">
          <mxGeometry x="160" y="430" width="30" height="20" as="geometry" />
        </mxCell>
        <mxCell id="7ZfoY5y6-u2EVlnCuCaT-63" style="edgeStyle=orthogonalEdgeStyle;rounded=0;orthogonalLoop=1;jettySize=auto;html=1;entryX=1;entryY=0.5;entryDx=0;entryDy=0;" edge="1" parent="1" source="7ZfoY5y6-u2EVlnCuCaT-62" target="7ZfoY5y6-u2EVlnCuCaT-31">
          <mxGeometry relative="1" as="geometry" />
        </mxCell>
        <mxCell id="7ZfoY5y6-u2EVlnCuCaT-62" value="a&lt;span style=&quot;font-size: 10px;&quot;&gt;&lt;sub&gt;2&lt;/sub&gt;&lt;/span&gt;" style="text;html=1;align=center;verticalAlign=middle;whiteSpace=wrap;rounded=0;" vertex="1" parent="1">
          <mxGeometry x="160" y="630" width="30" height="20" as="geometry" />
        </mxCell>
        <mxCell id="7ZfoY5y6-u2EVlnCuCaT-65" style="edgeStyle=orthogonalEdgeStyle;rounded=0;orthogonalLoop=1;jettySize=auto;html=1;entryX=1;entryY=0.5;entryDx=0;entryDy=0;" edge="1" parent="1" source="7ZfoY5y6-u2EVlnCuCaT-64" target="7ZfoY5y6-u2EVlnCuCaT-46">
          <mxGeometry relative="1" as="geometry" />
        </mxCell>
        <mxCell id="7ZfoY5y6-u2EVlnCuCaT-64" value="a&lt;span style=&quot;font-size: 10px;&quot;&gt;&lt;sub&gt;3&lt;/sub&gt;&lt;/span&gt;" style="text;html=1;align=center;verticalAlign=middle;whiteSpace=wrap;rounded=0;" vertex="1" parent="1">
          <mxGeometry x="160" y="830" width="30" height="20" as="geometry" />
        </mxCell>
        <mxCell id="7ZfoY5y6-u2EVlnCuCaT-66" style="edgeStyle=orthogonalEdgeStyle;rounded=0;orthogonalLoop=1;jettySize=auto;html=1;exitX=0.25;exitY=0;exitDx=0;exitDy=0;startArrow=dash;startFill=0;entryX=0.5;entryY=1;entryDx=0;entryDy=0;" edge="1" source="7ZfoY5y6-u2EVlnCuCaT-68" parent="1" target="7ZfoY5y6-u2EVlnCuCaT-89">
          <mxGeometry relative="1" as="geometry">
            <mxPoint x="580" y="542.4615384615383" as="targetPoint" />
          </mxGeometry>
        </mxCell>
        <mxCell id="7ZfoY5y6-u2EVlnCuCaT-67" style="edgeStyle=orthogonalEdgeStyle;rounded=0;orthogonalLoop=1;jettySize=auto;html=1;exitX=0.75;exitY=0;exitDx=0;exitDy=0;entryX=0;entryY=0.5;entryDx=0;entryDy=0;" edge="1" source="7ZfoY5y6-u2EVlnCuCaT-68" target="7ZfoY5y6-u2EVlnCuCaT-73" parent="1">
          <mxGeometry relative="1" as="geometry" />
        </mxCell>
        <mxCell id="7ZfoY5y6-u2EVlnCuCaT-68" value="4bits Full Adder" style="rounded=0;whiteSpace=wrap;html=1;flipH=0;flipV=1;direction=south;fillColor=none;" vertex="1" parent="1">
          <mxGeometry x="470" y="520" width="70" height="90" as="geometry" />
        </mxCell>
        <mxCell id="7ZfoY5y6-u2EVlnCuCaT-71" value="&lt;font style=&quot;font-size: 7px;&quot;&gt;active&lt;/font&gt;" style="text;html=1;align=center;verticalAlign=middle;whiteSpace=wrap;rounded=0;" vertex="1" parent="1">
          <mxGeometry x="495" y="598" width="20" height="10" as="geometry" />
        </mxCell>
        <mxCell id="7ZfoY5y6-u2EVlnCuCaT-72" value="&lt;font style=&quot;font-size: 7px;&quot;&gt;sum&lt;/font&gt;" style="text;html=1;align=center;verticalAlign=middle;whiteSpace=wrap;rounded=0;" vertex="1" parent="1">
          <mxGeometry x="527" y="535" width="10" height="10" as="geometry" />
        </mxCell>
        <mxCell id="7ZfoY5y6-u2EVlnCuCaT-73" value="0" style="text;html=1;align=center;verticalAlign=middle;whiteSpace=wrap;rounded=0;" vertex="1" parent="1">
          <mxGeometry x="580" y="578" width="40" height="20" as="geometry" />
        </mxCell>
        <mxCell id="7ZfoY5y6-u2EVlnCuCaT-78" value="&lt;font style=&quot;font-size: 7px;&quot;&gt;C_in&lt;/font&gt;" style="text;html=1;align=center;verticalAlign=middle;whiteSpace=wrap;rounded=0;" vertex="1" parent="1">
          <mxGeometry x="495" y="520" width="20" height="10" as="geometry" />
        </mxCell>
        <mxCell id="7ZfoY5y6-u2EVlnCuCaT-79" value="&lt;font style=&quot;font-size: 7px;&quot;&gt;C_out&lt;/font&gt;" style="text;html=1;align=center;verticalAlign=bottom;whiteSpace=wrap;rounded=0;" vertex="1" parent="1">
          <mxGeometry x="519" y="584" width="20" height="10" as="geometry" />
        </mxCell>
        <mxCell id="7ZfoY5y6-u2EVlnCuCaT-81" style="edgeStyle=orthogonalEdgeStyle;rounded=0;orthogonalLoop=1;jettySize=auto;html=1;entryX=1;entryY=0.5;entryDx=0;entryDy=0;" edge="1" parent="1" source="7ZfoY5y6-u2EVlnCuCaT-80" target="7ZfoY5y6-u2EVlnCuCaT-68">
          <mxGeometry relative="1" as="geometry" />
        </mxCell>
        <mxCell id="7ZfoY5y6-u2EVlnCuCaT-80" value="1" style="text;html=1;align=center;verticalAlign=middle;whiteSpace=wrap;rounded=0;" vertex="1" parent="1">
          <mxGeometry x="430" y="630" width="30" height="20" as="geometry" />
        </mxCell>
        <mxCell id="7ZfoY5y6-u2EVlnCuCaT-85" value="" style="group" vertex="1" connectable="0" parent="1">
          <mxGeometry x="721.03" y="63" width="92.64999999999998" height="168" as="geometry" />
        </mxCell>
        <mxCell id="7ZfoY5y6-u2EVlnCuCaT-82" value="" style="verticalLabelPosition=bottom;shadow=0;dashed=0;align=center;html=1;verticalAlign=top;shape=mxgraph.electrical.opto_electronics.7_segment_display;pointerEvents=1;fillColor=none;" vertex="1" parent="7ZfoY5y6-u2EVlnCuCaT-85">
          <mxGeometry x="8.970000000000027" y="49" width="74.7" height="96.1" as="geometry" />
        </mxCell>
        <mxCell id="7ZfoY5y6-u2EVlnCuCaT-83" value="" style="rounded=1;whiteSpace=wrap;html=1;fillColor=none;direction=south;" vertex="1" parent="7ZfoY5y6-u2EVlnCuCaT-85">
          <mxGeometry y="30" width="92.65" height="138" as="geometry" />
        </mxCell>
        <mxCell id="7ZfoY5y6-u2EVlnCuCaT-84" value="BCD 7 segment" style="text;html=1;align=center;verticalAlign=middle;whiteSpace=wrap;rounded=0;" vertex="1" parent="7ZfoY5y6-u2EVlnCuCaT-85">
          <mxGeometry x="1.32000000000005" width="90" height="30" as="geometry" />
        </mxCell>
        <mxCell id="7ZfoY5y6-u2EVlnCuCaT-86" value="رقم یکان" style="text;html=1;align=center;verticalAlign=middle;whiteSpace=wrap;rounded=0;" vertex="1" parent="1">
          <mxGeometry x="600" y="135" width="60" height="30" as="geometry" />
        </mxCell>
        <mxCell id="7ZfoY5y6-u2EVlnCuCaT-87" value="" style="group" vertex="1" connectable="0" parent="1">
          <mxGeometry x="720" y="442" width="92.64999999999998" height="168" as="geometry" />
        </mxCell>
        <mxCell id="7ZfoY5y6-u2EVlnCuCaT-88" value="" style="verticalLabelPosition=bottom;shadow=0;dashed=0;align=center;html=1;verticalAlign=top;shape=mxgraph.electrical.opto_electronics.7_segment_display;pointerEvents=1;fillColor=none;" vertex="1" parent="7ZfoY5y6-u2EVlnCuCaT-87">
          <mxGeometry x="8.970000000000027" y="49" width="74.7" height="96.1" as="geometry" />
        </mxCell>
        <mxCell id="7ZfoY5y6-u2EVlnCuCaT-89" value="" style="rounded=1;whiteSpace=wrap;html=1;fillColor=none;direction=south;" vertex="1" parent="7ZfoY5y6-u2EVlnCuCaT-87">
          <mxGeometry y="30" width="92.65" height="138" as="geometry" />
        </mxCell>
        <mxCell id="7ZfoY5y6-u2EVlnCuCaT-90" value="BCD 7 segment" style="text;html=1;align=center;verticalAlign=middle;whiteSpace=wrap;rounded=0;" vertex="1" parent="7ZfoY5y6-u2EVlnCuCaT-87">
          <mxGeometry x="1.32000000000005" width="90" height="30" as="geometry" />
        </mxCell>
        <mxCell id="7ZfoY5y6-u2EVlnCuCaT-91" value="رقم دهگان" style="text;html=1;align=center;verticalAlign=middle;whiteSpace=wrap;rounded=0;" vertex="1" parent="1">
          <mxGeometry x="600" y="510" width="60" height="30" as="geometry" />
        </mxCell>
      </root>
    </mxGraphModel>
  </diagram>
</mxfile>
